<mxfile host="app.diagrams.net" modified="2023-11-03T13:07:57.675Z" agent="Mozilla/5.0 (Macintosh; Intel Mac OS X 10_15_7) AppleWebKit/537.36 (KHTML, like Gecko) Chrome/119.0.0.0 Safari/537.36" version="22.0.8" etag="3Kb63CW8V-OwklbA5kg_" type="github">
  <diagram name="Page-1" id="qwouRh0liFXwZQaNSJrJ">
    <mxGraphModel>
      <root>
        <mxCell id="0" />
        <mxCell id="1" parent="0" />
      </root>
    </mxGraphModel>
  </diagram>
</mxfile>
